<mxfile host="app.diagrams.net" modified="2024-01-13T14:48:06.060Z" agent="Mozilla/5.0 (Windows NT 10.0; Win64; x64) AppleWebKit/537.36 (KHTML, like Gecko) Chrome/120.0.0.0 Safari/537.36" etag="G27gXGt_42_S_lAhDKZ6" version="22.1.18" type="device">
  <diagram name="PÃ¡gina-1" id="nFD2iSOUoDoQhNlN3VbK">
    <mxGraphModel dx="1793" dy="3261" grid="0" gridSize="10" guides="1" tooltips="1" connect="1" arrows="1" fold="1" page="1" pageScale="1" pageWidth="1654" pageHeight="1169" math="0" shadow="0">
      <root>
        <mxCell id="0" />
        <mxCell id="1" parent="0" />
        <mxCell id="xElSk6QQPi3Fmve4Cey1-6" value="&lt;b&gt;STAFF&lt;/b&gt;" style="swimlane;fontStyle=0;childLayout=stackLayout;horizontal=1;startSize=30;horizontalStack=0;resizeParent=1;resizeParentMax=0;resizeLast=0;collapsible=1;marginBottom=0;whiteSpace=wrap;html=1;" vertex="1" parent="1">
          <mxGeometry x="1017" y="-2317" width="140" height="270" as="geometry">
            <mxRectangle x="390" y="-1160" width="80" height="30" as="alternateBounds" />
          </mxGeometry>
        </mxCell>
        <mxCell id="xElSk6QQPi3Fmve4Cey1-8" value="FIRST_NAME" style="text;strokeColor=none;fillColor=none;align=left;verticalAlign=middle;spacingLeft=4;spacingRight=4;overflow=hidden;points=[[0,0.5],[1,0.5]];portConstraint=eastwest;rotatable=0;whiteSpace=wrap;html=1;" vertex="1" parent="xElSk6QQPi3Fmve4Cey1-6">
          <mxGeometry y="30" width="140" height="30" as="geometry" />
        </mxCell>
        <mxCell id="xElSk6QQPi3Fmve4Cey1-9" value="LAST_NAME" style="text;strokeColor=none;fillColor=none;align=left;verticalAlign=middle;spacingLeft=4;spacingRight=4;overflow=hidden;points=[[0,0.5],[1,0.5]];portConstraint=eastwest;rotatable=0;whiteSpace=wrap;html=1;" vertex="1" parent="xElSk6QQPi3Fmve4Cey1-6">
          <mxGeometry y="60" width="140" height="30" as="geometry" />
        </mxCell>
        <mxCell id="xElSk6QQPi3Fmve4Cey1-10" value="STORE_ID" style="text;strokeColor=none;fillColor=none;align=left;verticalAlign=middle;spacingLeft=4;spacingRight=4;overflow=hidden;points=[[0,0.5],[1,0.5]];portConstraint=eastwest;rotatable=0;whiteSpace=wrap;html=1;" vertex="1" parent="xElSk6QQPi3Fmve4Cey1-6">
          <mxGeometry y="90" width="140" height="30" as="geometry" />
        </mxCell>
        <mxCell id="xElSk6QQPi3Fmve4Cey1-11" value="ACTIVE" style="text;strokeColor=none;fillColor=none;align=left;verticalAlign=middle;spacingLeft=4;spacingRight=4;overflow=hidden;points=[[0,0.5],[1,0.5]];portConstraint=eastwest;rotatable=0;whiteSpace=wrap;html=1;" vertex="1" parent="xElSk6QQPi3Fmve4Cey1-6">
          <mxGeometry y="120" width="140" height="30" as="geometry" />
        </mxCell>
        <mxCell id="xElSk6QQPi3Fmve4Cey1-12" value="USERNAME" style="text;strokeColor=none;fillColor=none;align=left;verticalAlign=middle;spacingLeft=4;spacingRight=4;overflow=hidden;points=[[0,0.5],[1,0.5]];portConstraint=eastwest;rotatable=0;whiteSpace=wrap;html=1;" vertex="1" parent="xElSk6QQPi3Fmve4Cey1-6">
          <mxGeometry y="150" width="140" height="30" as="geometry" />
        </mxCell>
        <mxCell id="xElSk6QQPi3Fmve4Cey1-13" value="PASSWORD" style="text;strokeColor=none;fillColor=none;align=left;verticalAlign=middle;spacingLeft=4;spacingRight=4;overflow=hidden;points=[[0,0.5],[1,0.5]];portConstraint=eastwest;rotatable=0;whiteSpace=wrap;html=1;" vertex="1" parent="xElSk6QQPi3Fmve4Cey1-6">
          <mxGeometry y="180" width="140" height="30" as="geometry" />
        </mxCell>
        <mxCell id="xElSk6QQPi3Fmve4Cey1-14" value="LAST_UPDATE" style="text;strokeColor=none;fillColor=none;align=left;verticalAlign=middle;spacingLeft=4;spacingRight=4;overflow=hidden;points=[[0,0.5],[1,0.5]];portConstraint=eastwest;rotatable=0;whiteSpace=wrap;html=1;" vertex="1" parent="xElSk6QQPi3Fmve4Cey1-6">
          <mxGeometry y="210" width="140" height="30" as="geometry" />
        </mxCell>
        <mxCell id="xElSk6QQPi3Fmve4Cey1-7" value="STAFF_ID" style="text;strokeColor=none;fillColor=none;align=left;verticalAlign=middle;spacingLeft=4;spacingRight=4;overflow=hidden;points=[[0,0.5],[1,0.5]];portConstraint=eastwest;rotatable=0;whiteSpace=wrap;html=1;" vertex="1" parent="xElSk6QQPi3Fmve4Cey1-6">
          <mxGeometry y="240" width="140" height="30" as="geometry" />
        </mxCell>
        <mxCell id="xElSk6QQPi3Fmve4Cey1-15" value="&lt;b&gt;PAYMENT&lt;/b&gt;" style="swimlane;fontStyle=0;childLayout=stackLayout;horizontal=1;startSize=30;horizontalStack=0;resizeParent=1;resizeParentMax=0;resizeLast=0;collapsible=1;marginBottom=0;whiteSpace=wrap;html=1;" vertex="1" parent="1">
          <mxGeometry x="1247" y="-2317" width="140" height="240" as="geometry">
            <mxRectangle x="390" y="-1160" width="80" height="30" as="alternateBounds" />
          </mxGeometry>
        </mxCell>
        <mxCell id="xElSk6QQPi3Fmve4Cey1-16" value="PAYMENT_ID" style="text;strokeColor=none;fillColor=none;align=left;verticalAlign=middle;spacingLeft=4;spacingRight=4;overflow=hidden;points=[[0,0.5],[1,0.5]];portConstraint=eastwest;rotatable=0;whiteSpace=wrap;html=1;" vertex="1" parent="xElSk6QQPi3Fmve4Cey1-15">
          <mxGeometry y="30" width="140" height="30" as="geometry" />
        </mxCell>
        <mxCell id="xElSk6QQPi3Fmve4Cey1-17" value="CUSTOMER_ID" style="text;strokeColor=none;fillColor=none;align=left;verticalAlign=middle;spacingLeft=4;spacingRight=4;overflow=hidden;points=[[0,0.5],[1,0.5]];portConstraint=eastwest;rotatable=0;whiteSpace=wrap;html=1;" vertex="1" parent="xElSk6QQPi3Fmve4Cey1-15">
          <mxGeometry y="60" width="140" height="30" as="geometry" />
        </mxCell>
        <mxCell id="xElSk6QQPi3Fmve4Cey1-18" value="STAFF_ID" style="text;strokeColor=none;fillColor=none;align=left;verticalAlign=middle;spacingLeft=4;spacingRight=4;overflow=hidden;points=[[0,0.5],[1,0.5]];portConstraint=eastwest;rotatable=0;whiteSpace=wrap;html=1;" vertex="1" parent="xElSk6QQPi3Fmve4Cey1-15">
          <mxGeometry y="90" width="140" height="30" as="geometry" />
        </mxCell>
        <mxCell id="xElSk6QQPi3Fmve4Cey1-19" value="RENTAL_ID" style="text;strokeColor=none;fillColor=none;align=left;verticalAlign=middle;spacingLeft=4;spacingRight=4;overflow=hidden;points=[[0,0.5],[1,0.5]];portConstraint=eastwest;rotatable=0;whiteSpace=wrap;html=1;" vertex="1" parent="xElSk6QQPi3Fmve4Cey1-15">
          <mxGeometry y="120" width="140" height="30" as="geometry" />
        </mxCell>
        <mxCell id="xElSk6QQPi3Fmve4Cey1-20" value="AMOUNT" style="text;strokeColor=none;fillColor=none;align=left;verticalAlign=middle;spacingLeft=4;spacingRight=4;overflow=hidden;points=[[0,0.5],[1,0.5]];portConstraint=eastwest;rotatable=0;whiteSpace=wrap;html=1;" vertex="1" parent="xElSk6QQPi3Fmve4Cey1-15">
          <mxGeometry y="150" width="140" height="30" as="geometry" />
        </mxCell>
        <mxCell id="xElSk6QQPi3Fmve4Cey1-21" value="PAYMENT_DATE" style="text;strokeColor=none;fillColor=none;align=left;verticalAlign=middle;spacingLeft=4;spacingRight=4;overflow=hidden;points=[[0,0.5],[1,0.5]];portConstraint=eastwest;rotatable=0;whiteSpace=wrap;html=1;" vertex="1" parent="xElSk6QQPi3Fmve4Cey1-15">
          <mxGeometry y="180" width="140" height="30" as="geometry" />
        </mxCell>
        <mxCell id="xElSk6QQPi3Fmve4Cey1-22" value="LAST_UPDATE" style="text;strokeColor=none;fillColor=none;align=left;verticalAlign=middle;spacingLeft=4;spacingRight=4;overflow=hidden;points=[[0,0.5],[1,0.5]];portConstraint=eastwest;rotatable=0;whiteSpace=wrap;html=1;" vertex="1" parent="xElSk6QQPi3Fmve4Cey1-15">
          <mxGeometry y="210" width="140" height="30" as="geometry" />
        </mxCell>
        <mxCell id="xElSk6QQPi3Fmve4Cey1-25" value="" style="endArrow=none;html=1;rounded=0;entryX=0;entryY=0.5;entryDx=0;entryDy=0;exitX=1;exitY=0.5;exitDx=0;exitDy=0;" edge="1" parent="1" source="xElSk6QQPi3Fmve4Cey1-11" target="xElSk6QQPi3Fmve4Cey1-19">
          <mxGeometry width="50" height="50" relative="1" as="geometry">
            <mxPoint x="807" y="-1697" as="sourcePoint" />
            <mxPoint x="857" y="-1747" as="targetPoint" />
          </mxGeometry>
        </mxCell>
        <mxCell id="xElSk6QQPi3Fmve4Cey1-26" value="&lt;b&gt;RENTAL&lt;/b&gt;" style="swimlane;fontStyle=0;childLayout=stackLayout;horizontal=1;startSize=30;horizontalStack=0;resizeParent=1;resizeParentMax=0;resizeLast=0;collapsible=1;marginBottom=0;whiteSpace=wrap;html=1;" vertex="1" parent="1">
          <mxGeometry x="1126" y="-2020" width="190" height="240" as="geometry">
            <mxRectangle x="390" y="-1160" width="80" height="30" as="alternateBounds" />
          </mxGeometry>
        </mxCell>
        <mxCell id="xElSk6QQPi3Fmve4Cey1-27" value="RENTAL_ID" style="text;strokeColor=none;fillColor=none;align=left;verticalAlign=middle;spacingLeft=4;spacingRight=4;overflow=hidden;points=[[0,0.5],[1,0.5]];portConstraint=eastwest;rotatable=0;whiteSpace=wrap;html=1;" vertex="1" parent="xElSk6QQPi3Fmve4Cey1-26">
          <mxGeometry y="30" width="190" height="30" as="geometry" />
        </mxCell>
        <mxCell id="xElSk6QQPi3Fmve4Cey1-28" value="RENTAL_DATE" style="text;strokeColor=none;fillColor=none;align=left;verticalAlign=middle;spacingLeft=4;spacingRight=4;overflow=hidden;points=[[0,0.5],[1,0.5]];portConstraint=eastwest;rotatable=0;whiteSpace=wrap;html=1;" vertex="1" parent="xElSk6QQPi3Fmve4Cey1-26">
          <mxGeometry y="60" width="190" height="30" as="geometry" />
        </mxCell>
        <mxCell id="xElSk6QQPi3Fmve4Cey1-29" value="INVENTORY_ID" style="text;strokeColor=none;fillColor=none;align=left;verticalAlign=middle;spacingLeft=4;spacingRight=4;overflow=hidden;points=[[0,0.5],[1,0.5]];portConstraint=eastwest;rotatable=0;whiteSpace=wrap;html=1;" vertex="1" parent="xElSk6QQPi3Fmve4Cey1-26">
          <mxGeometry y="90" width="190" height="30" as="geometry" />
        </mxCell>
        <mxCell id="xElSk6QQPi3Fmve4Cey1-31" value="CUSTOMER_ID" style="text;strokeColor=none;fillColor=none;align=left;verticalAlign=middle;spacingLeft=4;spacingRight=4;overflow=hidden;points=[[0,0.5],[1,0.5]];portConstraint=eastwest;rotatable=0;whiteSpace=wrap;html=1;" vertex="1" parent="xElSk6QQPi3Fmve4Cey1-26">
          <mxGeometry y="120" width="190" height="30" as="geometry" />
        </mxCell>
        <mxCell id="xElSk6QQPi3Fmve4Cey1-32" value="RETURN_DATE" style="text;strokeColor=none;fillColor=none;align=left;verticalAlign=middle;spacingLeft=4;spacingRight=4;overflow=hidden;points=[[0,0.5],[1,0.5]];portConstraint=eastwest;rotatable=0;whiteSpace=wrap;html=1;" vertex="1" parent="xElSk6QQPi3Fmve4Cey1-26">
          <mxGeometry y="150" width="190" height="30" as="geometry" />
        </mxCell>
        <mxCell id="xElSk6QQPi3Fmve4Cey1-33" value="STAFF_ID" style="text;strokeColor=none;fillColor=none;align=left;verticalAlign=middle;spacingLeft=4;spacingRight=4;overflow=hidden;points=[[0,0.5],[1,0.5]];portConstraint=eastwest;rotatable=0;whiteSpace=wrap;html=1;" vertex="1" parent="xElSk6QQPi3Fmve4Cey1-26">
          <mxGeometry y="180" width="190" height="30" as="geometry" />
        </mxCell>
        <mxCell id="xElSk6QQPi3Fmve4Cey1-60" value="" style="endArrow=none;html=1;rounded=0;entryX=0.792;entryY=1.158;entryDx=0;entryDy=0;entryPerimeter=0;" edge="1" parent="xElSk6QQPi3Fmve4Cey1-26" target="xElSk6QQPi3Fmve4Cey1-30">
          <mxGeometry width="50" height="50" relative="1" as="geometry">
            <mxPoint x="151" y="261" as="sourcePoint" />
            <mxPoint x="151" y="202" as="targetPoint" />
          </mxGeometry>
        </mxCell>
        <mxCell id="xElSk6QQPi3Fmve4Cey1-30" value="LAST_UPDATE" style="text;strokeColor=none;fillColor=none;align=left;verticalAlign=middle;spacingLeft=4;spacingRight=4;overflow=hidden;points=[[0,0.5],[1,0.5]];portConstraint=eastwest;rotatable=0;whiteSpace=wrap;html=1;" vertex="1" parent="xElSk6QQPi3Fmve4Cey1-26">
          <mxGeometry y="210" width="190" height="30" as="geometry" />
        </mxCell>
        <mxCell id="xElSk6QQPi3Fmve4Cey1-36" value="" style="endArrow=none;html=1;rounded=0;" edge="1" parent="1">
          <mxGeometry width="50" height="50" relative="1" as="geometry">
            <mxPoint x="1277" y="-2018" as="sourcePoint" />
            <mxPoint x="1277" y="-2077" as="targetPoint" />
          </mxGeometry>
        </mxCell>
        <mxCell id="xElSk6QQPi3Fmve4Cey1-38" value="&lt;b&gt;CUSTOMER&lt;/b&gt;" style="swimlane;fontStyle=0;childLayout=stackLayout;horizontal=1;startSize=30;horizontalStack=0;resizeParent=1;resizeParentMax=0;resizeLast=0;collapsible=1;marginBottom=0;whiteSpace=wrap;html=1;" vertex="1" parent="1">
          <mxGeometry x="1247" y="-1757" width="190" height="240" as="geometry">
            <mxRectangle x="390" y="-1160" width="80" height="30" as="alternateBounds" />
          </mxGeometry>
        </mxCell>
        <mxCell id="xElSk6QQPi3Fmve4Cey1-39" value="CUSTOMER_ID" style="text;strokeColor=none;fillColor=none;align=left;verticalAlign=middle;spacingLeft=4;spacingRight=4;overflow=hidden;points=[[0,0.5],[1,0.5]];portConstraint=eastwest;rotatable=0;whiteSpace=wrap;html=1;" vertex="1" parent="xElSk6QQPi3Fmve4Cey1-38">
          <mxGeometry y="30" width="190" height="30" as="geometry" />
        </mxCell>
        <mxCell id="xElSk6QQPi3Fmve4Cey1-40" value="STORE_ID" style="text;strokeColor=none;fillColor=none;align=left;verticalAlign=middle;spacingLeft=4;spacingRight=4;overflow=hidden;points=[[0,0.5],[1,0.5]];portConstraint=eastwest;rotatable=0;whiteSpace=wrap;html=1;" vertex="1" parent="xElSk6QQPi3Fmve4Cey1-38">
          <mxGeometry y="60" width="190" height="30" as="geometry" />
        </mxCell>
        <mxCell id="xElSk6QQPi3Fmve4Cey1-41" value="FIRST_NAME" style="text;strokeColor=none;fillColor=none;align=left;verticalAlign=middle;spacingLeft=4;spacingRight=4;overflow=hidden;points=[[0,0.5],[1,0.5]];portConstraint=eastwest;rotatable=0;whiteSpace=wrap;html=1;" vertex="1" parent="xElSk6QQPi3Fmve4Cey1-38">
          <mxGeometry y="90" width="190" height="30" as="geometry" />
        </mxCell>
        <mxCell id="xElSk6QQPi3Fmve4Cey1-42" value="LAST_NAME" style="text;strokeColor=none;fillColor=none;align=left;verticalAlign=middle;spacingLeft=4;spacingRight=4;overflow=hidden;points=[[0,0.5],[1,0.5]];portConstraint=eastwest;rotatable=0;whiteSpace=wrap;html=1;" vertex="1" parent="xElSk6QQPi3Fmve4Cey1-38">
          <mxGeometry y="120" width="190" height="30" as="geometry" />
        </mxCell>
        <mxCell id="xElSk6QQPi3Fmve4Cey1-43" value="EMAIL" style="text;strokeColor=none;fillColor=none;align=left;verticalAlign=middle;spacingLeft=4;spacingRight=4;overflow=hidden;points=[[0,0.5],[1,0.5]];portConstraint=eastwest;rotatable=0;whiteSpace=wrap;html=1;" vertex="1" parent="xElSk6QQPi3Fmve4Cey1-38">
          <mxGeometry y="150" width="190" height="30" as="geometry" />
        </mxCell>
        <mxCell id="xElSk6QQPi3Fmve4Cey1-44" value="ADDRESS_ID" style="text;strokeColor=none;fillColor=none;align=left;verticalAlign=middle;spacingLeft=4;spacingRight=4;overflow=hidden;points=[[0,0.5],[1,0.5]];portConstraint=eastwest;rotatable=0;whiteSpace=wrap;html=1;" vertex="1" parent="xElSk6QQPi3Fmve4Cey1-38">
          <mxGeometry y="180" width="190" height="30" as="geometry" />
        </mxCell>
        <mxCell id="xElSk6QQPi3Fmve4Cey1-45" value="LAST_UPDATE" style="text;strokeColor=none;fillColor=none;align=left;verticalAlign=middle;spacingLeft=4;spacingRight=4;overflow=hidden;points=[[0,0.5],[1,0.5]];portConstraint=eastwest;rotatable=0;whiteSpace=wrap;html=1;" vertex="1" parent="xElSk6QQPi3Fmve4Cey1-38">
          <mxGeometry y="210" width="190" height="30" as="geometry" />
        </mxCell>
        <mxCell id="xElSk6QQPi3Fmve4Cey1-46" value="" style="endArrow=none;html=1;rounded=0;exitX=0.5;exitY=0;exitDx=0;exitDy=0;" edge="1" parent="1" source="xElSk6QQPi3Fmve4Cey1-38">
          <mxGeometry width="50" height="50" relative="1" as="geometry">
            <mxPoint x="1341.38" y="-2007" as="sourcePoint" />
            <mxPoint x="1341.38" y="-2077" as="targetPoint" />
          </mxGeometry>
        </mxCell>
        <mxCell id="xElSk6QQPi3Fmve4Cey1-61" value="&lt;b&gt;INVENTORY&lt;/b&gt;" style="swimlane;fontStyle=0;childLayout=stackLayout;horizontal=1;startSize=30;horizontalStack=0;resizeParent=1;resizeParentMax=0;resizeLast=0;collapsible=1;marginBottom=0;whiteSpace=wrap;html=1;" vertex="1" parent="1">
          <mxGeometry x="807" y="-2010" width="190" height="150" as="geometry">
            <mxRectangle x="390" y="-1160" width="80" height="30" as="alternateBounds" />
          </mxGeometry>
        </mxCell>
        <mxCell id="xElSk6QQPi3Fmve4Cey1-62" value="INVENTORY_ID" style="text;strokeColor=none;fillColor=none;align=left;verticalAlign=middle;spacingLeft=4;spacingRight=4;overflow=hidden;points=[[0,0.5],[1,0.5]];portConstraint=eastwest;rotatable=0;whiteSpace=wrap;html=1;" vertex="1" parent="xElSk6QQPi3Fmve4Cey1-61">
          <mxGeometry y="30" width="190" height="30" as="geometry" />
        </mxCell>
        <mxCell id="xElSk6QQPi3Fmve4Cey1-63" value="FILM_ID" style="text;strokeColor=none;fillColor=none;align=left;verticalAlign=middle;spacingLeft=4;spacingRight=4;overflow=hidden;points=[[0,0.5],[1,0.5]];portConstraint=eastwest;rotatable=0;whiteSpace=wrap;html=1;" vertex="1" parent="xElSk6QQPi3Fmve4Cey1-61">
          <mxGeometry y="60" width="190" height="30" as="geometry" />
        </mxCell>
        <mxCell id="xElSk6QQPi3Fmve4Cey1-64" value="STORE_ID" style="text;strokeColor=none;fillColor=none;align=left;verticalAlign=middle;spacingLeft=4;spacingRight=4;overflow=hidden;points=[[0,0.5],[1,0.5]];portConstraint=eastwest;rotatable=0;whiteSpace=wrap;html=1;" vertex="1" parent="xElSk6QQPi3Fmve4Cey1-61">
          <mxGeometry y="90" width="190" height="30" as="geometry" />
        </mxCell>
        <mxCell id="xElSk6QQPi3Fmve4Cey1-65" value="LAST_UPDATE" style="text;strokeColor=none;fillColor=none;align=left;verticalAlign=middle;spacingLeft=4;spacingRight=4;overflow=hidden;points=[[0,0.5],[1,0.5]];portConstraint=eastwest;rotatable=0;whiteSpace=wrap;html=1;" vertex="1" parent="xElSk6QQPi3Fmve4Cey1-61">
          <mxGeometry y="120" width="190" height="30" as="geometry" />
        </mxCell>
        <mxCell id="xElSk6QQPi3Fmve4Cey1-68" value="" style="endArrow=none;html=1;rounded=0;entryX=1;entryY=0.5;entryDx=0;entryDy=0;exitX=-0.017;exitY=0.825;exitDx=0;exitDy=0;exitPerimeter=0;" edge="1" parent="1">
          <mxGeometry width="50" height="50" relative="1" as="geometry">
            <mxPoint x="1123.7700000000004" y="-1935.25" as="sourcePoint" />
            <mxPoint x="998" y="-1935" as="targetPoint" />
          </mxGeometry>
        </mxCell>
        <mxCell id="xElSk6QQPi3Fmve4Cey1-71" value="&lt;b&gt;STORE&lt;/b&gt;" style="swimlane;fontStyle=0;childLayout=stackLayout;horizontal=1;startSize=30;horizontalStack=0;resizeParent=1;resizeParentMax=0;resizeLast=0;collapsible=1;marginBottom=0;whiteSpace=wrap;html=1;" vertex="1" parent="1">
          <mxGeometry x="857" y="-1826" width="220" height="150" as="geometry">
            <mxRectangle x="970" y="-1828" width="80" height="30" as="alternateBounds" />
          </mxGeometry>
        </mxCell>
        <mxCell id="xElSk6QQPi3Fmve4Cey1-72" value="STORE_ID" style="text;strokeColor=none;fillColor=none;align=left;verticalAlign=middle;spacingLeft=4;spacingRight=4;overflow=hidden;points=[[0,0.5],[1,0.5]];portConstraint=eastwest;rotatable=0;whiteSpace=wrap;html=1;" vertex="1" parent="xElSk6QQPi3Fmve4Cey1-71">
          <mxGeometry y="30" width="220" height="30" as="geometry" />
        </mxCell>
        <mxCell id="xElSk6QQPi3Fmve4Cey1-73" value="MANAGER_STAFF_ID" style="text;strokeColor=none;fillColor=none;align=left;verticalAlign=middle;spacingLeft=4;spacingRight=4;overflow=hidden;points=[[0,0.5],[1,0.5]];portConstraint=eastwest;rotatable=0;whiteSpace=wrap;html=1;" vertex="1" parent="xElSk6QQPi3Fmve4Cey1-71">
          <mxGeometry y="60" width="220" height="30" as="geometry" />
        </mxCell>
        <mxCell id="xElSk6QQPi3Fmve4Cey1-74" value="ADDRESS_ID" style="text;strokeColor=none;fillColor=none;align=left;verticalAlign=middle;spacingLeft=4;spacingRight=4;overflow=hidden;points=[[0,0.5],[1,0.5]];portConstraint=eastwest;rotatable=0;whiteSpace=wrap;html=1;" vertex="1" parent="xElSk6QQPi3Fmve4Cey1-71">
          <mxGeometry y="90" width="220" height="30" as="geometry" />
        </mxCell>
        <mxCell id="xElSk6QQPi3Fmve4Cey1-75" value="LAST_UPDATE" style="text;strokeColor=none;fillColor=none;align=left;verticalAlign=middle;spacingLeft=4;spacingRight=4;overflow=hidden;points=[[0,0.5],[1,0.5]];portConstraint=eastwest;rotatable=0;whiteSpace=wrap;html=1;" vertex="1" parent="xElSk6QQPi3Fmve4Cey1-71">
          <mxGeometry y="120" width="220" height="30" as="geometry" />
        </mxCell>
        <mxCell id="xElSk6QQPi3Fmve4Cey1-76" value="" style="endArrow=none;html=1;rounded=0;exitX=0.862;exitY=-0.013;exitDx=0;exitDy=0;exitPerimeter=0;" edge="1" parent="1" source="xElSk6QQPi3Fmve4Cey1-71">
          <mxGeometry width="50" height="50" relative="1" as="geometry">
            <mxPoint x="817" y="-1718" as="sourcePoint" />
            <mxPoint x="1047" y="-2048" as="targetPoint" />
          </mxGeometry>
        </mxCell>
        <mxCell id="xElSk6QQPi3Fmve4Cey1-77" value="" style="endArrow=none;html=1;rounded=0;" edge="1" parent="1" target="xElSk6QQPi3Fmve4Cey1-65">
          <mxGeometry width="50" height="50" relative="1" as="geometry">
            <mxPoint x="902" y="-1828" as="sourcePoint" />
            <mxPoint x="867" y="-1768" as="targetPoint" />
          </mxGeometry>
        </mxCell>
        <mxCell id="xElSk6QQPi3Fmve4Cey1-78" value="&lt;b&gt;ADDRESS&lt;/b&gt;" style="swimlane;fontStyle=0;childLayout=stackLayout;horizontal=1;startSize=30;horizontalStack=0;resizeParent=1;resizeParentMax=0;resizeLast=0;collapsible=1;marginBottom=0;whiteSpace=wrap;html=1;" vertex="1" parent="1">
          <mxGeometry x="1017" y="-1648" width="190" height="360" as="geometry">
            <mxRectangle x="390" y="-1160" width="80" height="30" as="alternateBounds" />
          </mxGeometry>
        </mxCell>
        <mxCell id="xElSk6QQPi3Fmve4Cey1-79" value="ADDRESS_ID" style="text;strokeColor=none;fillColor=none;align=left;verticalAlign=middle;spacingLeft=4;spacingRight=4;overflow=hidden;points=[[0,0.5],[1,0.5]];portConstraint=eastwest;rotatable=0;whiteSpace=wrap;html=1;" vertex="1" parent="xElSk6QQPi3Fmve4Cey1-78">
          <mxGeometry y="30" width="190" height="30" as="geometry" />
        </mxCell>
        <mxCell id="xElSk6QQPi3Fmve4Cey1-80" value="ADDRESS" style="text;strokeColor=none;fillColor=none;align=left;verticalAlign=middle;spacingLeft=4;spacingRight=4;overflow=hidden;points=[[0,0.5],[1,0.5]];portConstraint=eastwest;rotatable=0;whiteSpace=wrap;html=1;" vertex="1" parent="xElSk6QQPi3Fmve4Cey1-78">
          <mxGeometry y="60" width="190" height="30" as="geometry" />
        </mxCell>
        <mxCell id="xElSk6QQPi3Fmve4Cey1-81" value="ADDRESS2" style="text;strokeColor=none;fillColor=none;align=left;verticalAlign=middle;spacingLeft=4;spacingRight=4;overflow=hidden;points=[[0,0.5],[1,0.5]];portConstraint=eastwest;rotatable=0;whiteSpace=wrap;html=1;" vertex="1" parent="xElSk6QQPi3Fmve4Cey1-78">
          <mxGeometry y="90" width="190" height="30" as="geometry" />
        </mxCell>
        <mxCell id="xElSk6QQPi3Fmve4Cey1-82" value="DISTRICT" style="text;strokeColor=none;fillColor=none;align=left;verticalAlign=middle;spacingLeft=4;spacingRight=4;overflow=hidden;points=[[0,0.5],[1,0.5]];portConstraint=eastwest;rotatable=0;whiteSpace=wrap;html=1;" vertex="1" parent="xElSk6QQPi3Fmve4Cey1-78">
          <mxGeometry y="120" width="190" height="30" as="geometry" />
        </mxCell>
        <mxCell id="xElSk6QQPi3Fmve4Cey1-86" value="CITY_ID" style="text;strokeColor=none;fillColor=none;align=left;verticalAlign=middle;spacingLeft=4;spacingRight=4;overflow=hidden;points=[[0,0.5],[1,0.5]];portConstraint=eastwest;rotatable=0;whiteSpace=wrap;html=1;" vertex="1" parent="xElSk6QQPi3Fmve4Cey1-78">
          <mxGeometry y="150" width="190" height="30" as="geometry" />
        </mxCell>
        <mxCell id="xElSk6QQPi3Fmve4Cey1-90" value="CITY" style="text;strokeColor=none;fillColor=none;align=left;verticalAlign=middle;spacingLeft=4;spacingRight=4;overflow=hidden;points=[[0,0.5],[1,0.5]];portConstraint=eastwest;rotatable=0;whiteSpace=wrap;html=1;" vertex="1" parent="xElSk6QQPi3Fmve4Cey1-78">
          <mxGeometry y="180" width="190" height="30" as="geometry" />
        </mxCell>
        <mxCell id="xElSk6QQPi3Fmve4Cey1-87" value="POSTAL_CODE" style="text;strokeColor=none;fillColor=none;align=left;verticalAlign=middle;spacingLeft=4;spacingRight=4;overflow=hidden;points=[[0,0.5],[1,0.5]];portConstraint=eastwest;rotatable=0;whiteSpace=wrap;html=1;" vertex="1" parent="xElSk6QQPi3Fmve4Cey1-78">
          <mxGeometry y="210" width="190" height="30" as="geometry" />
        </mxCell>
        <mxCell id="xElSk6QQPi3Fmve4Cey1-163" value="COUNTRY_ID" style="text;strokeColor=none;fillColor=none;align=left;verticalAlign=middle;spacingLeft=4;spacingRight=4;overflow=hidden;points=[[0,0.5],[1,0.5]];portConstraint=eastwest;rotatable=0;whiteSpace=wrap;html=1;" vertex="1" parent="xElSk6QQPi3Fmve4Cey1-78">
          <mxGeometry y="240" width="190" height="30" as="geometry" />
        </mxCell>
        <mxCell id="xElSk6QQPi3Fmve4Cey1-164" value="COUNTRY" style="text;strokeColor=none;fillColor=none;align=left;verticalAlign=middle;spacingLeft=4;spacingRight=4;overflow=hidden;points=[[0,0.5],[1,0.5]];portConstraint=eastwest;rotatable=0;whiteSpace=wrap;html=1;" vertex="1" parent="xElSk6QQPi3Fmve4Cey1-78">
          <mxGeometry y="270" width="190" height="30" as="geometry" />
        </mxCell>
        <mxCell id="xElSk6QQPi3Fmve4Cey1-88" value="PHONE" style="text;strokeColor=none;fillColor=none;align=left;verticalAlign=middle;spacingLeft=4;spacingRight=4;overflow=hidden;points=[[0,0.5],[1,0.5]];portConstraint=eastwest;rotatable=0;whiteSpace=wrap;html=1;" vertex="1" parent="xElSk6QQPi3Fmve4Cey1-78">
          <mxGeometry y="300" width="190" height="30" as="geometry" />
        </mxCell>
        <mxCell id="xElSk6QQPi3Fmve4Cey1-162" value="LAST_UPDATE" style="text;strokeColor=none;fillColor=none;align=left;verticalAlign=middle;spacingLeft=4;spacingRight=4;overflow=hidden;points=[[0,0.5],[1,0.5]];portConstraint=eastwest;rotatable=0;whiteSpace=wrap;html=1;" vertex="1" parent="xElSk6QQPi3Fmve4Cey1-78">
          <mxGeometry y="330" width="190" height="30" as="geometry" />
        </mxCell>
        <mxCell id="xElSk6QQPi3Fmve4Cey1-89" style="edgeStyle=orthogonalEdgeStyle;rounded=0;orthogonalLoop=1;jettySize=auto;html=1;exitX=1;exitY=0.5;exitDx=0;exitDy=0;" edge="1" parent="xElSk6QQPi3Fmve4Cey1-78" source="xElSk6QQPi3Fmve4Cey1-88" target="xElSk6QQPi3Fmve4Cey1-88">
          <mxGeometry relative="1" as="geometry" />
        </mxCell>
        <mxCell id="xElSk6QQPi3Fmve4Cey1-92" value="" style="endArrow=none;html=1;rounded=0;entryX=0.905;entryY=1.02;entryDx=0;entryDy=0;entryPerimeter=0;exitX=0.206;exitY=-0.011;exitDx=0;exitDy=0;exitPerimeter=0;" edge="1" parent="1" source="xElSk6QQPi3Fmve4Cey1-78" target="xElSk6QQPi3Fmve4Cey1-75">
          <mxGeometry width="50" height="50" relative="1" as="geometry">
            <mxPoint x="857" y="-1568" as="sourcePoint" />
            <mxPoint x="907" y="-1618" as="targetPoint" />
          </mxGeometry>
        </mxCell>
        <mxCell id="xElSk6QQPi3Fmve4Cey1-95" value="" style="endArrow=none;html=1;rounded=0;entryX=0.211;entryY=1.183;entryDx=0;entryDy=0;entryPerimeter=0;exitX=0.439;exitY=-0.008;exitDx=0;exitDy=0;exitPerimeter=0;" edge="1" parent="1" source="xElSk6QQPi3Fmve4Cey1-78">
          <mxGeometry width="50" height="50" relative="1" as="geometry">
            <mxPoint x="1097" y="-1834" as="sourcePoint" />
            <mxPoint x="1097" y="-2048" as="targetPoint" />
          </mxGeometry>
        </mxCell>
        <mxCell id="xElSk6QQPi3Fmve4Cey1-96" value="" style="endArrow=none;html=1;rounded=0;entryX=0;entryY=0.5;entryDx=0;entryDy=0;" edge="1" parent="1" target="xElSk6QQPi3Fmve4Cey1-44">
          <mxGeometry width="50" height="50" relative="1" as="geometry">
            <mxPoint x="1207" y="-1562" as="sourcePoint" />
            <mxPoint x="907" y="-1618" as="targetPoint" />
          </mxGeometry>
        </mxCell>
        <mxCell id="xElSk6QQPi3Fmve4Cey1-102" value="&lt;b&gt;FILM&lt;/b&gt;" style="swimlane;fontStyle=0;childLayout=stackLayout;horizontal=1;startSize=30;horizontalStack=0;resizeParent=1;resizeParentMax=0;resizeLast=0;collapsible=1;marginBottom=0;whiteSpace=wrap;html=1;" vertex="1" parent="1">
          <mxGeometry x="437" y="-2088" width="250" height="420" as="geometry">
            <mxRectangle x="390" y="-1160" width="80" height="30" as="alternateBounds" />
          </mxGeometry>
        </mxCell>
        <mxCell id="xElSk6QQPi3Fmve4Cey1-103" value="FILM_ID" style="text;strokeColor=none;fillColor=none;align=left;verticalAlign=middle;spacingLeft=4;spacingRight=4;overflow=hidden;points=[[0,0.5],[1,0.5]];portConstraint=eastwest;rotatable=0;whiteSpace=wrap;html=1;fontStyle=1" vertex="1" parent="xElSk6QQPi3Fmve4Cey1-102">
          <mxGeometry y="30" width="250" height="30" as="geometry" />
        </mxCell>
        <mxCell id="xElSk6QQPi3Fmve4Cey1-104" value="TITLE" style="text;strokeColor=none;fillColor=none;align=left;verticalAlign=middle;spacingLeft=4;spacingRight=4;overflow=hidden;points=[[0,0.5],[1,0.5]];portConstraint=eastwest;rotatable=0;whiteSpace=wrap;html=1;" vertex="1" parent="xElSk6QQPi3Fmve4Cey1-102">
          <mxGeometry y="60" width="250" height="30" as="geometry" />
        </mxCell>
        <mxCell id="xElSk6QQPi3Fmve4Cey1-105" value="DESCRIPTION" style="text;strokeColor=none;fillColor=none;align=left;verticalAlign=middle;spacingLeft=4;spacingRight=4;overflow=hidden;points=[[0,0.5],[1,0.5]];portConstraint=eastwest;rotatable=0;whiteSpace=wrap;html=1;" vertex="1" parent="xElSk6QQPi3Fmve4Cey1-102">
          <mxGeometry y="90" width="250" height="30" as="geometry" />
        </mxCell>
        <mxCell id="xElSk6QQPi3Fmve4Cey1-115" value="RELEASE_YEAR" style="text;strokeColor=none;fillColor=none;align=left;verticalAlign=middle;spacingLeft=4;spacingRight=4;overflow=hidden;points=[[0,0.5],[1,0.5]];portConstraint=eastwest;rotatable=0;whiteSpace=wrap;html=1;" vertex="1" parent="xElSk6QQPi3Fmve4Cey1-102">
          <mxGeometry y="120" width="250" height="30" as="geometry" />
        </mxCell>
        <mxCell id="xElSk6QQPi3Fmve4Cey1-116" value="LANGUGE_ID" style="text;strokeColor=none;fillColor=none;align=left;verticalAlign=middle;spacingLeft=4;spacingRight=4;overflow=hidden;points=[[0,0.5],[1,0.5]];portConstraint=eastwest;rotatable=0;whiteSpace=wrap;html=1;" vertex="1" parent="xElSk6QQPi3Fmve4Cey1-102">
          <mxGeometry y="150" width="250" height="30" as="geometry" />
        </mxCell>
        <mxCell id="xElSk6QQPi3Fmve4Cey1-117" value="ORIGINAL_LANGUAGE_ID" style="text;strokeColor=none;fillColor=none;align=left;verticalAlign=middle;spacingLeft=4;spacingRight=4;overflow=hidden;points=[[0,0.5],[1,0.5]];portConstraint=eastwest;rotatable=0;whiteSpace=wrap;html=1;" vertex="1" parent="xElSk6QQPi3Fmve4Cey1-102">
          <mxGeometry y="180" width="250" height="30" as="geometry" />
        </mxCell>
        <mxCell id="xElSk6QQPi3Fmve4Cey1-120" value="RENTAL_DURATION" style="text;strokeColor=none;fillColor=none;align=left;verticalAlign=middle;spacingLeft=4;spacingRight=4;overflow=hidden;points=[[0,0.5],[1,0.5]];portConstraint=eastwest;rotatable=0;whiteSpace=wrap;html=1;" vertex="1" parent="xElSk6QQPi3Fmve4Cey1-102">
          <mxGeometry y="210" width="250" height="30" as="geometry" />
        </mxCell>
        <mxCell id="xElSk6QQPi3Fmve4Cey1-121" value="RENTAL_RATE" style="text;strokeColor=none;fillColor=none;align=left;verticalAlign=middle;spacingLeft=4;spacingRight=4;overflow=hidden;points=[[0,0.5],[1,0.5]];portConstraint=eastwest;rotatable=0;whiteSpace=wrap;html=1;" vertex="1" parent="xElSk6QQPi3Fmve4Cey1-102">
          <mxGeometry y="240" width="250" height="30" as="geometry" />
        </mxCell>
        <mxCell id="xElSk6QQPi3Fmve4Cey1-122" value="LENGTH" style="text;strokeColor=none;fillColor=none;align=left;verticalAlign=middle;spacingLeft=4;spacingRight=4;overflow=hidden;points=[[0,0.5],[1,0.5]];portConstraint=eastwest;rotatable=0;whiteSpace=wrap;html=1;" vertex="1" parent="xElSk6QQPi3Fmve4Cey1-102">
          <mxGeometry y="270" width="250" height="30" as="geometry" />
        </mxCell>
        <mxCell id="xElSk6QQPi3Fmve4Cey1-123" value="REPLACEMENT_COST" style="text;strokeColor=none;fillColor=none;align=left;verticalAlign=middle;spacingLeft=4;spacingRight=4;overflow=hidden;points=[[0,0.5],[1,0.5]];portConstraint=eastwest;rotatable=0;whiteSpace=wrap;html=1;" vertex="1" parent="xElSk6QQPi3Fmve4Cey1-102">
          <mxGeometry y="300" width="250" height="30" as="geometry" />
        </mxCell>
        <mxCell id="xElSk6QQPi3Fmve4Cey1-124" value="RATING" style="text;strokeColor=none;fillColor=none;align=left;verticalAlign=middle;spacingLeft=4;spacingRight=4;overflow=hidden;points=[[0,0.5],[1,0.5]];portConstraint=eastwest;rotatable=0;whiteSpace=wrap;html=1;" vertex="1" parent="xElSk6QQPi3Fmve4Cey1-102">
          <mxGeometry y="330" width="250" height="30" as="geometry" />
        </mxCell>
        <mxCell id="xElSk6QQPi3Fmve4Cey1-125" value="SPECIAL_FEATURES" style="text;strokeColor=none;fillColor=none;align=left;verticalAlign=middle;spacingLeft=4;spacingRight=4;overflow=hidden;points=[[0,0.5],[1,0.5]];portConstraint=eastwest;rotatable=0;whiteSpace=wrap;html=1;" vertex="1" parent="xElSk6QQPi3Fmve4Cey1-102">
          <mxGeometry y="360" width="250" height="30" as="geometry" />
        </mxCell>
        <mxCell id="xElSk6QQPi3Fmve4Cey1-126" value="LAST_UPDATE" style="text;strokeColor=none;fillColor=none;align=left;verticalAlign=middle;spacingLeft=4;spacingRight=4;overflow=hidden;points=[[0,0.5],[1,0.5]];portConstraint=eastwest;rotatable=0;whiteSpace=wrap;html=1;" vertex="1" parent="xElSk6QQPi3Fmve4Cey1-102">
          <mxGeometry y="390" width="250" height="30" as="geometry" />
        </mxCell>
        <mxCell id="xElSk6QQPi3Fmve4Cey1-111" value="&lt;b&gt;LANGUAGE&lt;/b&gt;" style="swimlane;fontStyle=0;childLayout=stackLayout;horizontal=1;startSize=30;horizontalStack=0;resizeParent=1;resizeParentMax=0;resizeLast=0;collapsible=1;marginBottom=0;whiteSpace=wrap;html=1;" vertex="1" parent="1">
          <mxGeometry x="534" y="-2258" width="140" height="120" as="geometry">
            <mxRectangle x="390" y="-1160" width="80" height="30" as="alternateBounds" />
          </mxGeometry>
        </mxCell>
        <mxCell id="xElSk6QQPi3Fmve4Cey1-112" value="LANGUAGE_ID" style="text;strokeColor=none;fillColor=none;align=left;verticalAlign=middle;spacingLeft=4;spacingRight=4;overflow=hidden;points=[[0,0.5],[1,0.5]];portConstraint=eastwest;rotatable=0;whiteSpace=wrap;html=1;" vertex="1" parent="xElSk6QQPi3Fmve4Cey1-111">
          <mxGeometry y="30" width="140" height="30" as="geometry" />
        </mxCell>
        <mxCell id="xElSk6QQPi3Fmve4Cey1-113" value="NAME" style="text;strokeColor=none;fillColor=none;align=left;verticalAlign=middle;spacingLeft=4;spacingRight=4;overflow=hidden;points=[[0,0.5],[1,0.5]];portConstraint=eastwest;rotatable=0;whiteSpace=wrap;html=1;" vertex="1" parent="xElSk6QQPi3Fmve4Cey1-111">
          <mxGeometry y="60" width="140" height="30" as="geometry" />
        </mxCell>
        <mxCell id="xElSk6QQPi3Fmve4Cey1-114" value="LAST_UPDATE" style="text;strokeColor=none;fillColor=none;align=left;verticalAlign=middle;spacingLeft=4;spacingRight=4;overflow=hidden;points=[[0,0.5],[1,0.5]];portConstraint=eastwest;rotatable=0;whiteSpace=wrap;html=1;" vertex="1" parent="xElSk6QQPi3Fmve4Cey1-111">
          <mxGeometry y="90" width="140" height="30" as="geometry" />
        </mxCell>
        <mxCell id="xElSk6QQPi3Fmve4Cey1-127" value="" style="endArrow=none;html=1;rounded=0;entryX=0.007;entryY=0.328;entryDx=0;entryDy=0;entryPerimeter=0;" edge="1" parent="1" target="xElSk6QQPi3Fmve4Cey1-64">
          <mxGeometry width="50" height="50" relative="1" as="geometry">
            <mxPoint x="687" y="-1910" as="sourcePoint" />
            <mxPoint x="737" y="-1960" as="targetPoint" />
          </mxGeometry>
        </mxCell>
        <mxCell id="xElSk6QQPi3Fmve4Cey1-128" value="" style="endArrow=none;html=1;rounded=0;exitX=0.456;exitY=1;exitDx=0;exitDy=0;exitPerimeter=0;" edge="1" parent="1" source="xElSk6QQPi3Fmve4Cey1-114">
          <mxGeometry width="50" height="50" relative="1" as="geometry">
            <mxPoint x="553" y="-2098" as="sourcePoint" />
            <mxPoint x="597" y="-2088" as="targetPoint" />
          </mxGeometry>
        </mxCell>
        <mxCell id="xElSk6QQPi3Fmve4Cey1-130" value="&lt;b&gt;ACTOR&lt;/b&gt;" style="swimlane;fontStyle=0;childLayout=stackLayout;horizontal=1;startSize=30;horizontalStack=0;resizeParent=1;resizeParentMax=0;resizeLast=0;collapsible=1;marginBottom=0;whiteSpace=wrap;html=1;" vertex="1" parent="1">
          <mxGeometry x="155" y="-1771" width="170" height="180" as="geometry">
            <mxRectangle x="390" y="-1160" width="80" height="30" as="alternateBounds" />
          </mxGeometry>
        </mxCell>
        <mxCell id="xElSk6QQPi3Fmve4Cey1-159" value="FILM_ID" style="text;strokeColor=none;fillColor=none;align=left;verticalAlign=middle;spacingLeft=4;spacingRight=4;overflow=hidden;points=[[0,0.5],[1,0.5]];portConstraint=eastwest;rotatable=0;whiteSpace=wrap;html=1;" vertex="1" parent="xElSk6QQPi3Fmve4Cey1-130">
          <mxGeometry y="30" width="170" height="30" as="geometry" />
        </mxCell>
        <mxCell id="xElSk6QQPi3Fmve4Cey1-131" value="ACTOR_ID" style="text;strokeColor=none;fillColor=none;align=left;verticalAlign=middle;spacingLeft=4;spacingRight=4;overflow=hidden;points=[[0,0.5],[1,0.5]];portConstraint=eastwest;rotatable=0;whiteSpace=wrap;html=1;" vertex="1" parent="xElSk6QQPi3Fmve4Cey1-130">
          <mxGeometry y="60" width="170" height="30" as="geometry" />
        </mxCell>
        <mxCell id="xElSk6QQPi3Fmve4Cey1-132" value="FIRST_NAME" style="text;strokeColor=none;fillColor=none;align=left;verticalAlign=middle;spacingLeft=4;spacingRight=4;overflow=hidden;points=[[0,0.5],[1,0.5]];portConstraint=eastwest;rotatable=0;whiteSpace=wrap;html=1;" vertex="1" parent="xElSk6QQPi3Fmve4Cey1-130">
          <mxGeometry y="90" width="170" height="30" as="geometry" />
        </mxCell>
        <mxCell id="xElSk6QQPi3Fmve4Cey1-133" value="LAST_NAME" style="text;strokeColor=none;fillColor=none;align=left;verticalAlign=middle;spacingLeft=4;spacingRight=4;overflow=hidden;points=[[0,0.5],[1,0.5]];portConstraint=eastwest;rotatable=0;whiteSpace=wrap;html=1;" vertex="1" parent="xElSk6QQPi3Fmve4Cey1-130">
          <mxGeometry y="120" width="170" height="30" as="geometry" />
        </mxCell>
        <mxCell id="xElSk6QQPi3Fmve4Cey1-137" value="LAST_UPDATE" style="text;strokeColor=none;fillColor=none;align=left;verticalAlign=middle;spacingLeft=4;spacingRight=4;overflow=hidden;points=[[0,0.5],[1,0.5]];portConstraint=eastwest;rotatable=0;whiteSpace=wrap;html=1;" vertex="1" parent="xElSk6QQPi3Fmve4Cey1-130">
          <mxGeometry y="150" width="170" height="30" as="geometry" />
        </mxCell>
        <mxCell id="xElSk6QQPi3Fmve4Cey1-139" value="" style="endArrow=none;html=1;rounded=0;entryX=0;entryY=0.5;entryDx=0;entryDy=0;" edge="1" parent="1">
          <mxGeometry width="50" height="50" relative="1" as="geometry">
            <mxPoint x="328" y="-1677.05" as="sourcePoint" />
            <mxPoint x="438" y="-1677.05" as="targetPoint" />
          </mxGeometry>
        </mxCell>
        <mxCell id="xElSk6QQPi3Fmve4Cey1-150" value="&lt;b&gt;FILM_CATEGORY&lt;/b&gt;" style="swimlane;fontStyle=0;childLayout=stackLayout;horizontal=1;startSize=30;horizontalStack=0;resizeParent=1;resizeParentMax=0;resizeLast=0;collapsible=1;marginBottom=0;whiteSpace=wrap;html=1;" vertex="1" parent="1">
          <mxGeometry x="507" y="-1538" width="170" height="150" as="geometry">
            <mxRectangle x="390" y="-1160" width="80" height="30" as="alternateBounds" />
          </mxGeometry>
        </mxCell>
        <mxCell id="xElSk6QQPi3Fmve4Cey1-151" value="FILM_ID" style="text;strokeColor=none;fillColor=none;align=left;verticalAlign=middle;spacingLeft=4;spacingRight=4;overflow=hidden;points=[[0,0.5],[1,0.5]];portConstraint=eastwest;rotatable=0;whiteSpace=wrap;html=1;fontStyle=1" vertex="1" parent="xElSk6QQPi3Fmve4Cey1-150">
          <mxGeometry y="30" width="170" height="30" as="geometry" />
        </mxCell>
        <mxCell id="xElSk6QQPi3Fmve4Cey1-152" value="CATEGORY_ID" style="text;strokeColor=none;fillColor=none;align=left;verticalAlign=middle;spacingLeft=4;spacingRight=4;overflow=hidden;points=[[0,0.5],[1,0.5]];portConstraint=eastwest;rotatable=0;whiteSpace=wrap;html=1;" vertex="1" parent="xElSk6QQPi3Fmve4Cey1-150">
          <mxGeometry y="60" width="170" height="30" as="geometry" />
        </mxCell>
        <mxCell id="xElSk6QQPi3Fmve4Cey1-153" value="NAME" style="text;strokeColor=none;fillColor=none;align=left;verticalAlign=middle;spacingLeft=4;spacingRight=4;overflow=hidden;points=[[0,0.5],[1,0.5]];portConstraint=eastwest;rotatable=0;whiteSpace=wrap;html=1;" vertex="1" parent="xElSk6QQPi3Fmve4Cey1-150">
          <mxGeometry y="90" width="170" height="30" as="geometry" />
        </mxCell>
        <mxCell id="xElSk6QQPi3Fmve4Cey1-156" value="LAST_UPDATE" style="text;strokeColor=none;fillColor=none;align=left;verticalAlign=middle;spacingLeft=4;spacingRight=4;overflow=hidden;points=[[0,0.5],[1,0.5]];portConstraint=eastwest;rotatable=0;whiteSpace=wrap;html=1;" vertex="1" parent="xElSk6QQPi3Fmve4Cey1-150">
          <mxGeometry y="120" width="170" height="30" as="geometry" />
        </mxCell>
        <mxCell id="xElSk6QQPi3Fmve4Cey1-154" value="" style="endArrow=none;html=1;rounded=0;entryX=0.644;entryY=1.105;entryDx=0;entryDy=0;entryPerimeter=0;" edge="1" parent="1" target="xElSk6QQPi3Fmve4Cey1-126">
          <mxGeometry width="50" height="50" relative="1" as="geometry">
            <mxPoint x="597" y="-1538" as="sourcePoint" />
            <mxPoint x="607" y="-1738" as="targetPoint" />
          </mxGeometry>
        </mxCell>
      </root>
    </mxGraphModel>
  </diagram>
</mxfile>
